<svg width="24" height="24" viewBox="0 0 24 24" fill="none" xmlns="http://www.w3.org/2000/svg">
<path d="M15.5714 16.6857H19.8L15.5714 20.9143V16.6857ZM14.5143 16.1571V20.9143H6.05714C5.47336 20.9143 5 20.4414 5 19.8571V5.05714C5 4.47288 5.47336 4 6.05714 4H18.7429C19.3272 4 19.8 4.47288 19.8 5.05714V15.6286H15.0429C14.7507 15.6286 14.5143 15.865 14.5143 16.1571ZM7.11429 7.7C7.11429 7.99213 7.35073 8.22857 7.64286 8.22857H17.1571C17.4493 8.22857 17.6857 7.99213 17.6857 7.7C17.6857 7.40787 17.4493 7.17143 17.1571 7.17143H7.64286C7.35073 7.17143 7.11429 7.40787 7.11429 7.7ZM7.11429 10.8714C7.11429 11.1636 7.35073 11.4 7.64286 11.4H17.1571C17.4493 11.4 17.6857 11.1636 17.6857 10.8714C17.6857 10.5793 17.4493 10.3429 17.1571 10.3429H7.64286C7.35073 10.3429 7.11429 10.5793 7.11429 10.8714ZM17.1571 14.5714C17.4493 14.5714 17.6857 14.335 17.6857 14.0429C17.6857 13.7507 17.4493 13.5143 17.1571 13.5143H7.64286C7.35073 13.5143 7.11429 13.7507 7.11429 14.0429C7.11429 14.335 7.35073 14.5714 7.64286 14.5714H17.1571Z" fill="#272525"/>
</svg>
