<svg width="24" height="24" viewBox="0 0 24 24" fill="none" xmlns="http://www.w3.org/2000/svg">
<path d="M5.93521 11.4824L5.89427 11.3872H3.05615L3.25018 11.6388L3.25002 11.639C4.1745 12.8401 5.51967 13.6467 7.01482 13.8959L7.39174 13.9593L7.16665 13.65H7.16681C6.6754 12.9766 6.26209 12.2494 5.93519 11.4824L5.93521 11.4824Z" fill="#272525"/>
<path d="M9.50284 11.3872H6.48828L6.59259 11.6096C6.93798 12.3423 7.36805 13.032 7.87424 13.6644L7.99627 13.8175L8.11831 13.6644C8.62445 13.0323 9.05455 12.3426 9.39915 11.6096L9.50284 11.3872Z" fill="#272525"/>
<path d="M10.0976 11.3872L10.0566 11.4824C9.72976 12.2494 9.31659 12.9766 8.82518 13.6501L8.6001 13.9594L8.97701 13.8961V13.8959C10.471 13.6443 11.8153 12.8384 12.7412 11.6393L12.9369 11.3874L10.0976 11.3872Z" fill="#272525"/>
<path d="M10.7692 8.40018C10.7333 9.1609 10.5993 9.9138 10.3708 10.6404L10.3062 10.8438H13.261L13.3055 10.7614V10.7613C13.6926 10.0369 13.9202 9.23807 13.9728 8.41835L13.9844 8.25146L10.7764 8.25162L10.7692 8.40018Z" fill="#272525"/>
<path d="M5.7783 8.41695C5.82425 9.20892 5.9808 9.99064 6.24304 10.7395L6.27959 10.8441H9.71199L9.74854 10.7395C10.0124 9.9908 10.1669 9.20828 10.2073 8.41571L10.2153 8.25195H5.76904L5.7783 8.41695Z" fill="#272525"/>
<path d="M5.62142 10.6407C5.39288 9.91411 5.25877 9.16122 5.22254 8.40049L5.21517 8.25195H2L2.01286 8.41994C2.07168 9.23777 2.29881 10.0348 2.68011 10.7608L2.72403 10.8441H5.68622L5.62142 10.6407Z" fill="#272525"/>
<path d="M5.22256 7.55983C5.25879 6.7991 5.3929 6.04604 5.62144 5.31965L5.68606 5.11621H2.72403L2.68011 5.1995C2.2988 5.92541 2.07153 6.7224 2.01286 7.54022L2 7.70821L5.21517 7.70837L5.22256 7.55983Z" fill="#272525"/>
<path d="M10.2077 7.54396C10.1672 6.75139 10.0127 5.96882 9.74887 5.22035L9.71232 5.11572H6.27992L6.24338 5.22035C5.98096 5.96902 5.82457 6.75075 5.77863 7.54288L5.76953 7.70789H10.2158L10.2077 7.54396Z" fill="#272525"/>
<path d="M10.3708 5.31967C10.5994 6.04606 10.7332 6.79895 10.7692 7.55984L10.7765 7.70838H13.9845L13.9729 7.54149H13.9728C13.9204 6.72178 13.6928 5.92291 13.3055 5.19856L13.261 5.11621H10.3062L10.3708 5.31967Z" fill="#272525"/>
<path d="M10.0566 4.47702L10.0976 4.57223H12.9371L12.7413 4.32033H12.7412C11.8154 3.12088 10.4712 2.31481 8.97702 2.06337L8.6001 2L8.82518 2.30931V2.30916C9.31659 2.98267 9.7299 3.71002 10.0566 4.47701L10.0566 4.47702Z" fill="#272525"/>
<path d="M6.48828 4.57254H9.50284L9.39916 4.35012C9.05455 3.61714 8.62446 2.92745 8.11831 2.29518L7.99628 2.14209L7.87424 2.29518C7.36794 2.92745 6.93784 3.6173 6.59259 4.35012L6.48828 4.57254Z" fill="#272525"/>
<path d="M5.93521 4.47717C6.26209 3.71014 6.67526 2.98282 7.16683 2.30931L7.39191 2L7.015 2.06337L7.01484 2.06352C5.51973 2.31261 4.1744 3.11931 3.25004 4.32081L3.05664 4.5724H5.89427L5.93521 4.47717Z" fill="#272525"/>
<path d="M21.7378 19.9878H19.6557L19.6176 20.1374H19.6178C19.598 20.2133 19.5878 20.2911 19.5874 20.3696C19.5874 20.7658 19.7989 21.1321 20.1422 21.3304C20.4853 21.5285 20.9082 21.5285 21.2515 21.3304C21.5948 21.1321 21.8061 20.7658 21.8061 20.3696C21.8059 20.2911 21.7957 20.2133 21.776 20.1374L21.7378 19.9878Z" fill="#272525"/>
<path d="M14.4771 19.9878H12.395L12.3568 20.1374H12.357C12.337 20.2133 12.3269 20.2911 12.3267 20.3696C12.3267 20.7658 12.5381 21.1321 12.8813 21.3304C13.2245 21.5285 13.6475 21.5285 13.9908 21.3304C14.3339 21.1321 14.5454 20.7658 14.5454 20.3696C14.5452 20.2911 14.535 20.2133 14.5152 20.1374L14.4771 19.9878Z" fill="#272525"/>
<path d="M22.3701 17.0332C21.8852 16.9342 21.4397 16.6961 21.0878 16.3483C20.7379 15.998 20.4995 15.5519 20.4028 15.0662L20.3711 14.9062H18.1406V19.2961H22.53V17.065L22.3701 17.0332Z" fill="#272525"/>
<path d="M11.603 12.7266H17.4485V19.2954H11.603V12.7266Z" fill="#272525"/>
</svg>
