<svg width="86" height="86" viewBox="0 0 86 86" fill="none" xmlns="http://www.w3.org/2000/svg">
<path d="M38.1375 42.1693C33.9427 41.3098 30.2634 38.8299 27.9089 35.2752C25.5545 31.7204 24.7178 27.382 25.5828 23.2144C26.4479 19.0467 28.9439 15.3911 32.5218 13.0519C36.0996 10.7127 40.4663 9.88135 44.6611 10.7408L41.3993 26.455L38.1375 42.1693Z" fill="#5584CE"/>
<path d="M47.5994 7.43642C51.8011 8.26151 55.5009 10.7112 57.8848 14.2465C60.2687 17.7818 61.1414 22.1132 60.3109 26.2878C59.4805 30.4624 57.0149 34.1383 53.4565 36.5068C49.8982 38.8752 45.5386 39.7423 41.3369 38.9172L44.4681 23.1768L47.5994 7.43642Z" fill="#ED3237"/>
<path d="M19.1503 58.63C18.5177 58.63 17.9587 58.5477 17.4733 58.383C16.9967 58.2183 16.5937 57.9757 16.2643 57.655C15.935 57.3257 15.688 56.9183 15.5233 56.433C15.3587 55.9477 15.2763 55.3843 15.2763 54.743V50.076C15.2763 49.79 15.3457 49.5777 15.4843 49.439C15.6317 49.3003 15.8397 49.231 16.1083 49.231C16.377 49.231 16.5807 49.3003 16.7193 49.439C16.8667 49.5777 16.9403 49.79 16.9403 50.076V54.73C16.9403 55.5533 17.1267 56.173 17.4993 56.589C17.8807 56.9963 18.431 57.2 19.1503 57.2C19.8697 57.2 20.4157 56.9963 20.7883 56.589C21.161 56.173 21.3473 55.5533 21.3473 54.73V50.076C21.3473 49.79 21.4167 49.5777 21.5553 49.439C21.7027 49.3003 21.9107 49.231 22.1793 49.231C22.4393 49.231 22.6387 49.3003 22.7773 49.439C22.9247 49.5777 22.9983 49.79 22.9983 50.076V54.743C22.9983 55.5923 22.851 56.3073 22.5563 56.888C22.2703 57.4687 21.8413 57.9063 21.2693 58.201C20.6973 58.487 19.991 58.63 19.1503 58.63ZM25.589 58.591C25.329 58.591 25.1297 58.513 24.991 58.357C24.8523 58.201 24.783 57.9843 24.783 57.707V52.936C24.783 52.65 24.8523 52.4333 24.991 52.286C25.1297 52.13 25.329 52.052 25.589 52.052C25.849 52.052 26.0483 52.13 26.187 52.286C26.3343 52.4333 26.408 52.65 26.408 52.936V57.707C26.408 57.9843 26.3387 58.201 26.2 58.357C26.0613 58.513 25.8577 58.591 25.589 58.591ZM25.589 50.843C25.2857 50.843 25.0473 50.7693 24.874 50.622C24.7093 50.466 24.627 50.2537 24.627 49.985C24.627 49.7077 24.7093 49.4953 24.874 49.348C25.0473 49.2007 25.2857 49.127 25.589 49.127C25.901 49.127 26.1393 49.2007 26.304 49.348C26.4687 49.4953 26.551 49.7077 26.551 49.985C26.551 50.2537 26.4687 50.466 26.304 50.622C26.1393 50.7693 25.901 50.843 25.589 50.843ZM32.0615 58.63C31.4288 58.63 30.8698 58.5477 30.3845 58.383C29.9078 58.2183 29.5048 57.9757 29.1755 57.655C28.8461 57.3257 28.5991 56.9183 28.4345 56.433C28.2698 55.9477 28.1875 55.3843 28.1875 54.743V50.076C28.1875 49.79 28.2568 49.5777 28.3955 49.439C28.5428 49.3003 28.7508 49.231 29.0195 49.231C29.2881 49.231 29.4918 49.3003 29.6305 49.439C29.7778 49.5777 29.8515 49.79 29.8515 50.076V54.73C29.8515 55.5533 30.0378 56.173 30.4105 56.589C30.7918 56.9963 31.3421 57.2 32.0615 57.2C32.7808 57.2 33.3268 56.9963 33.6995 56.589C34.0721 56.173 34.2585 55.5533 34.2585 54.73V50.076C34.2585 49.79 34.3278 49.5777 34.4665 49.439C34.6138 49.3003 34.8218 49.231 35.0905 49.231C35.3505 49.231 35.5498 49.3003 35.6885 49.439C35.8358 49.5777 35.9095 49.79 35.9095 50.076V54.743C35.9095 55.5923 35.7621 56.3073 35.4675 56.888C35.1815 57.4687 34.7525 57.9063 34.1805 58.201C33.6085 58.487 32.9021 58.63 32.0615 58.63ZM38.1361 58.565C37.9455 58.565 37.7851 58.513 37.6551 58.409C37.5338 58.2963 37.4688 58.1533 37.4601 57.98C37.4601 57.8067 37.5338 57.6247 37.6811 57.434L39.7871 54.834V55.601L37.8111 53.17C37.6551 52.9793 37.5815 52.7973 37.5901 52.624C37.5988 52.4507 37.6638 52.312 37.7851 52.208C37.9151 52.0953 38.0755 52.039 38.2661 52.039C38.4655 52.039 38.6301 52.0737 38.7601 52.143C38.8988 52.2123 39.0245 52.3207 39.1371 52.468L40.6971 54.47H40.1251L41.6981 52.468C41.8195 52.3207 41.9451 52.2123 42.0751 52.143C42.2051 52.0737 42.3655 52.039 42.5561 52.039C42.7555 52.039 42.9158 52.0953 43.0371 52.208C43.1585 52.3207 43.2191 52.4637 43.2191 52.637C43.2278 52.8103 43.1541 52.9923 42.9981 53.183L41.0351 55.588V54.86L43.1411 57.434C43.2971 57.616 43.3708 57.7937 43.3621 57.967C43.3535 58.1403 43.2841 58.2833 43.1541 58.396C43.0328 58.5087 42.8725 58.565 42.6731 58.565C42.4825 58.565 42.3221 58.5303 42.1921 58.461C42.0621 58.3917 41.9365 58.2833 41.8151 58.136L40.1251 56.004H40.6711L38.9941 58.136C38.8815 58.2747 38.7601 58.383 38.6301 58.461C38.5001 58.5303 38.3355 58.565 38.1361 58.565ZM49.0548 58.63C48.1708 58.63 47.3951 58.435 46.7278 58.045C46.0691 57.655 45.5578 57.109 45.1938 56.407C44.8298 55.6963 44.6478 54.8643 44.6478 53.911C44.6478 53.1917 44.7518 52.546 44.9598 51.974C45.1678 51.3933 45.4625 50.8993 45.8438 50.492C46.2338 50.076 46.6975 49.7597 47.2348 49.543C47.7808 49.3177 48.3875 49.205 49.0548 49.205C49.9475 49.205 50.7231 49.4 51.3818 49.79C52.0405 50.1713 52.5518 50.713 52.9158 51.415C53.2798 52.117 53.4618 52.9447 53.4618 53.898C53.4618 54.6173 53.3578 55.2673 53.1498 55.848C52.9418 56.4287 52.6428 56.927 52.2528 57.343C51.8715 57.759 51.4078 58.0797 50.8618 58.305C50.3245 58.5217 49.7221 58.63 49.0548 58.63ZM49.0548 57.2C49.6181 57.2 50.0948 57.07 50.4848 56.81C50.8835 56.55 51.1868 56.173 51.3948 55.679C51.6115 55.185 51.7198 54.5957 51.7198 53.911C51.7198 52.871 51.4858 52.065 51.0178 51.493C50.5585 50.921 49.9041 50.635 49.0548 50.635C48.5001 50.635 48.0235 50.765 47.6248 51.025C47.2261 51.2763 46.9185 51.649 46.7018 52.143C46.4938 52.6283 46.3898 53.2177 46.3898 53.911C46.3898 54.9423 46.6238 55.7483 47.0918 56.329C47.5598 56.9097 48.2141 57.2 49.0548 57.2ZM57.9098 58.63C57.3465 58.63 56.8742 58.5347 56.4928 58.344C56.1202 58.1533 55.8428 57.876 55.6608 57.512C55.4788 57.1393 55.3878 56.68 55.3878 56.134V53.365H54.7118C54.5038 53.365 54.3435 53.313 54.2308 53.209C54.1182 53.0963 54.0618 52.9447 54.0618 52.754C54.0618 52.5547 54.1182 52.403 54.2308 52.299C54.3435 52.195 54.5038 52.143 54.7118 52.143H55.3878V50.96C55.3878 50.6913 55.4572 50.4877 55.5958 50.349C55.7432 50.2103 55.9468 50.141 56.2068 50.141C56.4668 50.141 56.6662 50.2103 56.8048 50.349C56.9435 50.4877 57.0128 50.6913 57.0128 50.96V52.143H58.3908C58.5988 52.143 58.7592 52.195 58.8718 52.299C58.9845 52.403 59.0408 52.5547 59.0408 52.754C59.0408 52.9447 58.9845 53.0963 58.8718 53.209C58.7592 53.313 58.5988 53.365 58.3908 53.365H57.0128V56.043C57.0128 56.459 57.1038 56.771 57.2858 56.979C57.4678 57.187 57.7625 57.291 58.1698 57.291C58.3172 57.291 58.4472 57.278 58.5598 57.252C58.6725 57.226 58.7722 57.2087 58.8588 57.2C58.9628 57.1913 59.0495 57.226 59.1188 57.304C59.1882 57.3733 59.2228 57.5207 59.2228 57.746C59.2228 57.9193 59.1925 58.0753 59.1318 58.214C59.0798 58.344 58.9802 58.435 58.8328 58.487C58.7202 58.5217 58.5728 58.552 58.3908 58.578C58.2088 58.6127 58.0485 58.63 57.9098 58.63ZM62.8226 58.63C62.1639 58.63 61.5919 58.4957 61.1066 58.227C60.6213 57.9583 60.2443 57.577 59.9756 57.083C59.7069 56.5803 59.5726 55.991 59.5726 55.315C59.5726 54.8037 59.6463 54.3487 59.7936 53.95C59.9496 53.5427 60.1706 53.196 60.4566 52.91C60.7426 52.6153 61.0849 52.3943 61.4836 52.247C61.8823 52.091 62.3286 52.013 62.8226 52.013C63.4813 52.013 64.0533 52.1473 64.5386 52.416C65.0239 52.6847 65.4009 53.066 65.6696 53.56C65.9383 54.054 66.0726 54.639 66.0726 55.315C66.0726 55.8263 65.9946 56.2857 65.8386 56.693C65.6913 57.1003 65.4746 57.4513 65.1886 57.746C64.9026 58.032 64.5603 58.253 64.1616 58.409C63.7629 58.5563 63.3166 58.63 62.8226 58.63ZM62.8226 57.395C63.1433 57.395 63.4249 57.317 63.6676 57.161C63.9103 57.005 64.0966 56.7753 64.2266 56.472C64.3653 56.16 64.4346 55.7743 64.4346 55.315C64.4346 54.6217 64.2873 54.106 63.9926 53.768C63.6979 53.4213 63.3079 53.248 62.8226 53.248C62.5019 53.248 62.2203 53.326 61.9776 53.482C61.7349 53.6293 61.5443 53.859 61.4056 54.171C61.2756 54.4743 61.2106 54.8557 61.2106 55.315C61.2106 55.9997 61.3579 56.5197 61.6526 56.875C61.9473 57.2217 62.3373 57.395 62.8226 57.395ZM68.2458 58.604C67.9772 58.604 67.7692 58.5347 67.6218 58.396C67.4832 58.2487 67.4138 58.0407 67.4138 57.772V52.858C67.4138 52.5893 67.4832 52.3857 67.6218 52.247C67.7605 52.1083 67.9555 52.039 68.2068 52.039C68.4582 52.039 68.6532 52.1083 68.7918 52.247C68.9305 52.3857 68.9998 52.5893 68.9998 52.858V53.677H68.8698C68.9912 53.157 69.2295 52.7627 69.5848 52.494C69.9402 52.2253 70.4125 52.065 71.0018 52.013C71.1838 51.9957 71.3268 52.0433 71.4308 52.156C71.5435 52.26 71.6085 52.4247 71.6258 52.65C71.6432 52.8667 71.5912 53.0443 71.4698 53.183C71.3572 53.313 71.1838 53.391 70.9498 53.417L70.6638 53.443C70.1352 53.495 69.7365 53.6597 69.4678 53.937C69.1992 54.2057 69.0648 54.587 69.0648 55.081V57.772C69.0648 58.0407 68.9955 58.2487 68.8568 58.396C68.7182 58.5347 68.5145 58.604 68.2458 58.604Z" fill="url(#paint0_linear_5_2470)"/>
<path d="M9.18817 74.5C8.9975 74.5 8.85017 74.4523 8.74617 74.357C8.65083 74.253 8.60317 74.1057 8.60317 73.915V65.92C8.60317 65.7293 8.65083 65.5863 8.74617 65.491C8.85017 65.387 8.9975 65.335 9.18817 65.335H14.0242C14.1715 65.335 14.2842 65.374 14.3622 65.452C14.4402 65.53 14.4792 65.6383 14.4792 65.777C14.4792 65.9243 14.4402 66.037 14.3622 66.115C14.2842 66.193 14.1715 66.232 14.0242 66.232H9.64317V69.404H13.7512C13.8985 69.404 14.0112 69.443 14.0892 69.521C14.1672 69.5903 14.2062 69.6987 14.2062 69.846C14.2062 69.9933 14.1672 70.106 14.0892 70.184C14.0112 70.262 13.8985 70.301 13.7512 70.301H9.64317V73.603H14.0242C14.1715 73.603 14.2842 73.642 14.3622 73.72C14.4402 73.798 14.4792 73.9063 14.4792 74.045C14.4792 74.1923 14.4402 74.305 14.3622 74.383C14.2842 74.461 14.1715 74.5 14.0242 74.5H9.18817ZM16.7153 74.591C16.5419 74.591 16.4076 74.5433 16.3123 74.448C16.2256 74.344 16.1823 74.2053 16.1823 74.032V65.881C16.1823 65.699 16.2299 65.5647 16.3253 65.478C16.4206 65.3827 16.5549 65.335 16.7283 65.335H19.8093C20.7886 65.335 21.5426 65.5647 22.0713 66.024C22.5999 66.4833 22.8643 67.1377 22.8643 67.987C22.8643 68.5243 22.7429 68.9923 22.5003 69.391C22.2663 69.781 21.9196 70.08 21.4603 70.288C21.0009 70.4873 20.4506 70.587 19.8093 70.587L19.9393 70.418H20.1993C20.5373 70.418 20.8319 70.5047 21.0833 70.678C21.3346 70.8513 21.5643 71.1287 21.7723 71.51L23.0203 73.837C23.0896 73.9583 23.1199 74.0797 23.1113 74.201C23.1113 74.3137 23.0723 74.409 22.9943 74.487C22.9163 74.5563 22.8036 74.591 22.6563 74.591C22.5089 74.591 22.3876 74.5563 22.2923 74.487C22.1969 74.4177 22.1146 74.318 22.0453 74.188L20.6283 71.562C20.4289 71.1893 20.1993 70.9423 19.9393 70.821C19.6793 70.691 19.3369 70.626 18.9123 70.626H17.2483V74.032C17.2483 74.2053 17.2049 74.344 17.1183 74.448C17.0316 74.5433 16.8973 74.591 16.7153 74.591ZM17.2483 69.781H19.6533C20.3639 69.781 20.9013 69.6337 21.2653 69.339C21.6293 69.0357 21.8113 68.585 21.8113 67.987C21.8113 67.4063 21.6293 66.9687 21.2653 66.674C20.9013 66.3707 20.3639 66.219 19.6533 66.219H17.2483V69.781ZM25.4116 74.591C25.2382 74.591 25.1039 74.5433 25.0086 74.448C24.9219 74.344 24.8786 74.2053 24.8786 74.032V65.881C24.8786 65.699 24.9262 65.5647 25.0216 65.478C25.1169 65.3827 25.2512 65.335 25.4246 65.335H28.5056C29.4849 65.335 30.2389 65.5777 30.7676 66.063C31.2962 66.5397 31.5606 67.2157 31.5606 68.091C31.5606 68.9577 31.2962 69.6337 30.7676 70.119C30.2389 70.6043 29.4849 70.847 28.5056 70.847H25.9446V74.032C25.9446 74.2053 25.9012 74.344 25.8146 74.448C25.7279 74.5433 25.5936 74.591 25.4116 74.591ZM25.9446 69.95H28.3756C29.0776 69.95 29.6062 69.794 29.9616 69.482C30.3256 69.1613 30.5076 68.6977 30.5076 68.091C30.5076 67.4757 30.3256 67.012 29.9616 66.7C29.6062 66.3793 29.0776 66.219 28.3756 66.219H25.9446V69.95ZM39.4207 74.617C39.0134 74.617 38.6147 74.5823 38.2247 74.513C37.8347 74.4437 37.4707 74.344 37.1327 74.214C36.8034 74.084 36.5044 73.9193 36.2357 73.72C36.1317 73.642 36.058 73.5553 36.0147 73.46C35.98 73.356 35.9714 73.2563 35.9887 73.161C36.0147 73.057 36.058 72.9703 36.1187 72.901C36.188 72.8317 36.2704 72.7927 36.3657 72.784C36.461 72.7753 36.565 72.8057 36.6777 72.875C37.0677 73.1523 37.4837 73.356 37.9257 73.486C38.3677 73.6073 38.866 73.668 39.4207 73.668C40.2007 73.668 40.777 73.525 41.1497 73.239C41.531 72.9443 41.7217 72.5587 41.7217 72.082C41.7217 71.692 41.583 71.3887 41.3057 71.172C41.037 70.9467 40.582 70.769 39.9407 70.639L38.5887 70.366C37.774 70.1927 37.163 69.911 36.7557 69.521C36.357 69.1223 36.1577 68.5937 36.1577 67.935C36.1577 67.5277 36.24 67.1593 36.4047 66.83C36.5694 66.492 36.799 66.206 37.0937 65.972C37.3884 65.7293 37.7394 65.543 38.1467 65.413C38.554 65.283 39.0047 65.218 39.4987 65.218C40.0447 65.218 40.5517 65.296 41.0197 65.452C41.4964 65.5993 41.9254 65.8247 42.3067 66.128C42.402 66.206 42.467 66.297 42.5017 66.401C42.5364 66.4963 42.5407 66.5917 42.5147 66.687C42.4887 66.7737 42.441 66.8473 42.3717 66.908C42.311 66.9687 42.2287 67.0033 42.1247 67.012C42.0294 67.0207 41.921 66.986 41.7997 66.908C41.453 66.648 41.0934 66.4617 40.7207 66.349C40.348 66.2277 39.9364 66.167 39.4857 66.167C39.0264 66.167 38.6277 66.2363 38.2897 66.375C37.9604 66.5137 37.7004 66.7173 37.5097 66.986C37.3277 67.246 37.2367 67.5493 37.2367 67.896C37.2367 68.312 37.3624 68.6413 37.6137 68.884C37.8737 69.1267 38.294 69.3043 38.8747 69.417L40.2267 69.703C41.102 69.885 41.7477 70.1623 42.1637 70.535C42.5884 70.899 42.8007 71.3973 42.8007 72.03C42.8007 72.4113 42.7227 72.7623 42.5667 73.083C42.4107 73.4037 42.1854 73.681 41.8907 73.915C41.596 74.1403 41.2407 74.3137 40.8247 74.435C40.4087 74.5563 39.9407 74.617 39.4207 74.617ZM45.6396 76.931C45.5096 76.931 45.4056 76.8963 45.3276 76.827C45.2496 76.7577 45.2019 76.6623 45.1846 76.541C45.1759 76.4283 45.1976 76.3113 45.2496 76.19L46.1466 74.175V74.63L43.6506 68.832C43.5986 68.702 43.5812 68.5807 43.5986 68.468C43.6159 68.3553 43.6679 68.2643 43.7546 68.195C43.8412 68.1257 43.9626 68.091 44.1186 68.091C44.2572 68.091 44.3656 68.1213 44.4436 68.182C44.5216 68.2427 44.5909 68.351 44.6516 68.507L46.7836 73.733H46.4326L48.5906 68.507C48.6599 68.351 48.7336 68.2427 48.8116 68.182C48.8896 68.1213 49.0022 68.091 49.1496 68.091C49.2882 68.091 49.3922 68.1257 49.4616 68.195C49.5396 68.2643 49.5829 68.3553 49.5916 68.468C49.6089 68.572 49.5916 68.689 49.5396 68.819L46.2116 76.515C46.1422 76.671 46.0642 76.7793 45.9776 76.84C45.8996 76.9007 45.7869 76.931 45.6396 76.931ZM52.9183 74.617C52.5283 74.617 52.134 74.5693 51.7353 74.474C51.3453 74.3787 50.9813 74.214 50.6433 73.98C50.5567 73.9193 50.496 73.85 50.4613 73.772C50.4267 73.6853 50.4137 73.603 50.4223 73.525C50.4397 73.4383 50.4743 73.3647 50.5263 73.304C50.587 73.2433 50.6563 73.2087 50.7343 73.2C50.821 73.1827 50.9163 73.2 51.0203 73.252C51.3583 73.46 51.6833 73.6073 51.9953 73.694C52.316 73.772 52.6323 73.811 52.9443 73.811C53.4383 73.811 53.811 73.72 54.0623 73.538C54.3137 73.356 54.4393 73.109 54.4393 72.797C54.4393 72.5543 54.357 72.3637 54.1923 72.225C54.0277 72.0777 53.7677 71.965 53.4123 71.887L52.2293 71.627C51.6833 71.5143 51.276 71.3193 51.0073 71.042C50.7473 70.7647 50.6173 70.405 50.6173 69.963C50.6173 69.573 50.717 69.2393 50.9163 68.962C51.1243 68.676 51.4147 68.455 51.7873 68.299C52.16 68.143 52.5933 68.065 53.0873 68.065C53.4687 68.065 53.8283 68.117 54.1663 68.221C54.513 68.3163 54.825 68.4723 55.1023 68.689C55.189 68.7497 55.2453 68.8233 55.2713 68.91C55.306 68.988 55.3103 69.0703 55.2843 69.157C55.267 69.235 55.228 69.3043 55.1673 69.365C55.1067 69.417 55.033 69.4473 54.9463 69.456C54.8597 69.4647 54.7687 69.4387 54.6733 69.378C54.4133 69.2047 54.149 69.079 53.8803 69.001C53.6117 68.9143 53.3473 68.871 53.0873 68.871C52.602 68.871 52.2337 68.9663 51.9823 69.157C51.731 69.3477 51.6053 69.599 51.6053 69.911C51.6053 70.1537 51.6833 70.353 51.8393 70.509C51.9953 70.665 52.238 70.7777 52.5673 70.847L53.7503 71.094C54.3137 71.2153 54.734 71.4103 55.0113 71.679C55.2973 71.939 55.4403 72.2943 55.4403 72.745C55.4403 73.317 55.2107 73.772 54.7513 74.11C54.292 74.448 53.681 74.617 52.9183 74.617ZM59.5167 74.617C59.0227 74.617 58.6067 74.5303 58.2687 74.357C57.9393 74.175 57.6923 73.915 57.5277 73.577C57.363 73.2303 57.2807 72.81 57.2807 72.316V69.001H56.4097C56.2623 69.001 56.1497 68.9663 56.0717 68.897C55.9937 68.819 55.9547 68.715 55.9547 68.585C55.9547 68.455 55.9937 68.3553 56.0717 68.286C56.1497 68.2167 56.2623 68.182 56.4097 68.182H57.2807V66.687C57.2807 66.5137 57.3283 66.3837 57.4237 66.297C57.519 66.2017 57.649 66.154 57.8137 66.154C57.9783 66.154 58.104 66.2017 58.1907 66.297C58.286 66.3837 58.3337 66.5137 58.3337 66.687V68.182H59.9717C60.119 68.182 60.2317 68.2167 60.3097 68.286C60.3877 68.3553 60.4267 68.455 60.4267 68.585C60.4267 68.715 60.3877 68.819 60.3097 68.897C60.2317 68.9663 60.119 69.001 59.9717 69.001H58.3337V72.212C58.3337 72.706 58.4377 73.083 58.6457 73.343C58.8537 73.5943 59.1917 73.72 59.6597 73.72C59.8243 73.72 59.963 73.7027 60.0757 73.668C60.197 73.6333 60.2967 73.616 60.3747 73.616C60.4527 73.6073 60.5177 73.6333 60.5697 73.694C60.6217 73.7547 60.6477 73.8587 60.6477 74.006C60.6477 74.11 60.626 74.2053 60.5827 74.292C60.548 74.3787 60.483 74.4393 60.3877 74.474C60.2837 74.5087 60.145 74.539 59.9717 74.565C59.807 74.5997 59.6553 74.617 59.5167 74.617ZM64.3101 74.617C63.6428 74.617 63.0664 74.487 62.5811 74.227C62.1044 73.9583 61.7318 73.5813 61.4631 73.096C61.2031 72.6107 61.0731 72.03 61.0731 71.354C61.0731 70.6953 61.2031 70.1233 61.4631 69.638C61.7231 69.144 62.0784 68.7583 62.5291 68.481C62.9884 68.2037 63.5171 68.065 64.1151 68.065C64.5398 68.065 64.9211 68.1387 65.2591 68.286C65.5971 68.4247 65.8831 68.6283 66.1171 68.897C66.3598 69.1657 66.5418 69.4907 66.6631 69.872C66.7931 70.2533 66.8581 70.6823 66.8581 71.159C66.8581 71.2977 66.8191 71.4017 66.7411 71.471C66.6631 71.5317 66.5504 71.562 66.4031 71.562H61.8791V70.873H66.1561L65.9481 71.042C65.9481 70.574 65.8788 70.1797 65.7401 69.859C65.6014 69.5297 65.3978 69.2783 65.1291 69.105C64.8691 68.9317 64.5398 68.845 64.1411 68.845C63.6991 68.845 63.3221 68.949 63.0101 69.157C62.7068 69.3563 62.4771 69.638 62.3211 70.002C62.1651 70.3573 62.0871 70.7733 62.0871 71.25V71.328C62.0871 72.1253 62.2778 72.732 62.6591 73.148C63.0491 73.564 63.5994 73.772 64.3101 73.772C64.6048 73.772 64.8951 73.733 65.1811 73.655C65.4758 73.577 65.7618 73.447 66.0391 73.265C66.1604 73.187 66.2688 73.1523 66.3641 73.161C66.4681 73.161 66.5504 73.1913 66.6111 73.252C66.6718 73.304 66.7108 73.3733 66.7281 73.46C66.7541 73.538 66.7454 73.6247 66.7021 73.72C66.6674 73.8153 66.5938 73.8977 66.4811 73.967C66.1951 74.175 65.8571 74.3353 65.4671 74.448C65.0771 74.5607 64.6914 74.617 64.3101 74.617ZM68.928 74.591C68.7547 74.591 68.6247 74.5433 68.538 74.448C68.4514 74.3527 68.408 74.2183 68.408 74.045V68.624C68.408 68.4507 68.4514 68.3207 68.538 68.234C68.6247 68.1387 68.7504 68.091 68.915 68.091C69.0797 68.091 69.2054 68.1387 69.292 68.234C69.3874 68.3207 69.435 68.4507 69.435 68.624V69.768L69.292 69.586C69.4567 69.1007 69.721 68.728 70.085 68.468C70.4577 68.1993 70.8997 68.065 71.411 68.065C71.9484 68.065 72.3817 68.195 72.711 68.455C73.049 68.7063 73.2744 69.1007 73.387 69.638H73.192C73.348 69.1527 73.6254 68.7713 74.024 68.494C74.4314 68.208 74.9037 68.065 75.441 68.065C75.9177 68.065 76.3077 68.156 76.611 68.338C76.923 68.52 77.157 68.7973 77.313 69.17C77.469 69.534 77.547 69.9977 77.547 70.561V74.045C77.547 74.2183 77.4994 74.3527 77.404 74.448C77.3174 74.5433 77.1874 74.591 77.014 74.591C76.8494 74.591 76.7194 74.5433 76.624 74.448C76.5374 74.3527 76.494 74.2183 76.494 74.045V70.613C76.494 70.0323 76.3944 69.6077 76.195 69.339C75.9957 69.0617 75.6577 68.923 75.181 68.923C74.661 68.923 74.2494 69.105 73.946 69.469C73.6514 69.8243 73.504 70.3097 73.504 70.925V74.045C73.504 74.2183 73.4564 74.3527 73.361 74.448C73.2744 74.5433 73.1444 74.591 72.971 74.591C72.8064 74.591 72.6764 74.5433 72.581 74.448C72.4944 74.3527 72.451 74.2183 72.451 74.045V70.613C72.451 70.0323 72.347 69.6077 72.139 69.339C71.9397 69.0617 71.606 68.923 71.138 68.923C70.618 68.923 70.2064 69.105 69.903 69.469C69.6084 69.8243 69.461 70.3097 69.461 70.925V74.045C69.461 74.409 69.2834 74.591 68.928 74.591Z" fill="#272525"/>
<defs>
<linearGradient id="paint0_linear_5_2470" x1="7" y1="46.5" x2="30.7526" y2="99.9433" gradientUnits="userSpaceOnUse">
<stop stop-color="#14ADD6"/>
<stop offset="1" stop-color="#384295"/>
</linearGradient>
</defs>
</svg>
