<svg width="24" height="24" viewBox="0 0 24 24" fill="none" xmlns="http://www.w3.org/2000/svg">
<path d="M8.67984 6.53809C6.94847 6.53809 5.53809 7.94847 5.53809 9.67984C5.53809 11.4148 6.94847 12.8216 8.67984 12.8216C10.4112 12.8216 11.8216 11.4148 11.8216 9.67984C11.8216 7.94847 10.4112 6.53809 8.67984 6.53809ZM8.70431 9.31672C9.74454 9.59598 9.87715 10.2314 9.88417 10.4931C9.90163 10.9853 9.55956 11.4531 9.05682 11.6311C9.02893 11.6415 8.99745 11.6451 8.96955 11.6556V12.1234H8.27139V11.6451C7.92932 11.5477 7.58024 11.3 7.2835 10.8318L7.8629 10.4095C8.25733 11.0381 8.67624 10.975 8.84033 10.9157C9.03934 10.8458 9.19284 10.6713 9.18599 10.5212C9.18256 10.3746 9.00802 10.1721 8.53677 10.0465C7.49654 9.76385 7.36393 9.12847 7.35691 8.87043C7.33945 8.37437 7.68153 7.90656 8.18426 7.72859C8.21215 7.72157 8.24363 7.71456 8.27153 7.7077L8.27137 7.2363H8.96954V7.718C9.30819 7.81929 9.66069 8.06007 9.95743 8.53134L9.37803 8.95024C8.9836 8.32189 8.56468 8.38828 8.40059 8.44405C8.20158 8.51387 8.04808 8.68841 8.05494 8.84238C8.05852 8.98872 8.23306 9.18772 8.70431 9.31678L8.70431 9.31672Z" fill="#272525"/>
<path d="M13.3679 14.368C13.7727 13.9666 14.1218 13.5127 14.4081 13.0206L15.4588 13.3033L15.5844 13.0454C16.0174 12.1513 16.2723 11.2018 16.3421 10.2209L16.3595 9.93121L15.3053 9.64852C15.3018 8.49997 15.0015 7.38291 14.436 6.39159L15.204 5.6236L15.0434 5.38626C14.7782 4.98483 14.464 4.60423 14.1079 4.24832C13.7554 3.89581 13.3714 3.58163 12.9734 3.3125L12.7361 3.15541L11.9681 3.92307C10.9802 3.358 9.85952 3.0577 8.71113 3.05427L8.42828 2L8.142 2.02088C7.16114 2.08369 6.208 2.33817 5.31442 2.77111L5.05604 2.89672L5.33873 3.9474C4.84658 4.23711 4.39277 4.58621 3.98775 4.99123C3.5829 5.39237 3.23381 5.8465 2.94752 6.33861L1.897 6.05638L1.77139 6.31477C1.33845 7.20834 1.08368 8.16148 1.02088 9.14235L1 9.42863L2.05427 9.71133C2.0577 10.8599 2.35442 11.9769 2.92355 12.9683L2.15557 13.7362L2.31266 13.9736C2.5779 14.3719 2.89565 14.7556 3.24816 15.112C3.60426 15.4645 3.98467 15.7784 4.3861 16.0441L4.62344 16.2046L5.39143 15.4366C6.37931 16.0022 7.49997 16.302 8.64836 16.3059L8.93106 17.3602L9.22076 17.3422C10.2016 17.2724 11.1548 17.0176 12.0449 16.5847L12.3033 16.4591L12.0206 15.4084C12.5126 15.1221 12.9664 14.773 13.3679 14.368L13.3679 14.368ZM8.66221 14.2005C6.15583 14.2005 4.12412 12.1688 4.12412 9.66238C4.12412 7.15599 6.15583 5.12428 8.66221 5.12428C11.1686 5.12428 13.2003 7.15599 13.2003 9.66238C13.2003 12.1688 11.1686 14.2005 8.66221 14.2005Z" fill="#272525"/>
<path d="M21.8857 18.0405C21.8857 17.7193 21.8474 17.3981 21.774 17.0875L22.35 16.7524L22.2557 16.4805C22.0567 15.9011 21.7495 15.3701 21.3481 14.9057L21.1596 14.6892L20.5767 15.0243C20.1088 14.5806 19.5469 14.2563 18.9325 14.0713V13.408L18.6498 13.3522C18.0668 13.2335 17.4106 13.2335 16.8276 13.3522L16.5449 13.408V14.071C15.9306 14.256 15.3684 14.5806 14.9008 15.024L14.3214 14.6889L14.1328 14.9051C13.7279 15.3659 13.4206 15.8968 13.2217 16.4798L13.124 16.7518L13.7034 17.0868C13.6302 17.3979 13.5917 17.7191 13.5917 18.0398C13.5917 18.3607 13.63 18.6822 13.7034 18.9928L13.124 19.3279L13.2217 19.5998C13.4207 20.1828 13.7279 20.7134 14.1328 21.1746L14.3214 21.3907L14.9008 21.0557C15.3686 21.4994 15.9305 21.8237 16.5449 22.0087V22.6716L16.8276 22.7274C17.1173 22.788 17.4244 22.8195 17.7386 22.8195C18.0528 22.8195 18.36 22.7877 18.6497 22.7283L18.9324 22.6725L18.9325 22.0096C19.5468 21.8246 20.109 21.5 20.5767 21.0566L21.1596 21.3917L21.3482 21.1755C21.7496 20.7113 22.0568 20.1803 22.2558 19.6007L22.3501 19.3288L21.7741 18.9937C21.8474 18.6828 21.8857 18.3616 21.8857 18.0404L21.8857 18.0405ZM17.7386 20.484C16.3912 20.484 15.295 19.3878 15.295 18.0405C15.295 16.6931 16.3912 15.5969 17.7386 15.5969C19.086 15.5969 20.1822 16.6931 20.1822 18.0405C20.1822 19.3878 19.086 20.484 17.7386 20.484Z" fill="#272525"/>
<path d="M19.4837 10.7095V11.0586H20.1818V10.7095C20.1818 9.74609 20.9639 8.96406 21.9273 8.96406H22.2763V8.26589H21.9273C20.9639 8.26589 20.1818 7.48386 20.1818 6.52047V6.17139H19.4837V6.52047C19.4837 7.48386 18.7016 8.26589 17.7382 8.26589H17.3892V8.96406H17.7382C18.7016 8.96406 19.4837 9.74609 19.4837 10.7095Z" fill="#272525"/>
</svg>
