<svg width="24" height="24" viewBox="0 0 24 24" fill="none" xmlns="http://www.w3.org/2000/svg">
<path d="M15.1472 10.753L14.5003 6.18247C14.4357 5.62198 13.9614 5.21235 13.4009 5.21235H12.7326C12.6894 3.42294 11.2235 2 9.43403 2C7.64458 2 6.17863 3.42294 6.13548 5.21235L5.44551 5.2122C4.88501 5.2122 4.41071 5.62186 4.34603 6.18232L3.0094 15.6037C2.92323 16.272 3.44054 16.8756 4.10888 16.8756H9.45555C9.64969 13.7279 12.0643 11.1624 15.1472 10.7528V10.753ZM9.41243 3.35823C10.4689 3.35823 11.3097 4.19903 11.3743 5.23383L7.47214 5.23398C7.5153 4.19903 8.37763 3.35822 9.41254 3.35822L9.41243 3.35823ZM9.41243 10.8608C7.73081 10.8608 6.37255 9.50254 6.37255 7.82093C6.37255 7.45444 6.67437 7.15264 7.04084 7.15264C7.40733 7.15264 7.70914 7.45446 7.70914 7.82093C7.70914 8.76957 8.46379 9.52403 9.41223 9.52403C10.3392 9.52403 11.1153 8.76938 11.1153 7.82093C11.1153 7.45444 11.4172 7.15264 11.7836 7.15264C12.1501 7.15264 12.4519 7.45446 12.4519 7.82093C12.4521 9.52403 11.094 10.8608 9.41235 10.8608H9.41243Z" fill="#272525"/>
<path d="M16.0309 12.0249C13.142 12.0249 10.792 14.3748 10.792 17.2638C10.792 20.1527 13.1419 22.5026 16.0309 22.5026C18.9198 22.5026 21.2697 20.1527 21.2697 17.2638C21.2699 14.3749 18.9198 12.0249 16.0309 12.0249ZM18.3808 16.4876L16.0309 18.9669C15.9015 19.0962 15.729 19.1825 15.5566 19.1825C15.3841 19.1825 15.1901 19.1179 15.0823 18.9669L13.681 17.4793C13.4007 17.2206 13.4223 16.7894 13.681 16.5523C13.9397 16.2936 14.371 16.3151 14.6296 16.5738L15.5566 17.5439L17.4322 15.5605C17.6909 15.3018 18.1005 15.2802 18.3809 15.539C18.6397 15.7976 18.6397 16.2073 18.3809 16.4876L18.3808 16.4876Z" fill="#272525"/>
</svg>
