<svg width="86" height="72" viewBox="0 0 86 72" fill="none" xmlns="http://www.w3.org/2000/svg">
<path d="M38.1375 35.1693C33.9427 34.3098 30.2634 31.8299 27.9089 28.2752C25.5545 24.7204 24.7178 20.382 25.5828 16.2144C26.4479 12.0467 28.9439 8.39115 32.5218 6.05191C36.0996 3.71267 40.4663 2.88135 44.6611 3.74083L41.3993 19.455L38.1375 35.1693Z" fill="#5584CE"/>
<path d="M47.5994 0.43642C51.8011 1.26151 55.5009 3.71117 57.8848 7.24649C60.2687 10.7818 61.1414 15.1132 60.3109 19.2878C59.4805 23.4624 57.0149 27.1383 53.4565 29.5068C49.8982 31.8752 45.5386 32.7423 41.3369 31.9172L44.4681 16.1768L47.5994 0.43642Z" fill="#ED3237"/>
<path d="M19.1503 51.63C18.5177 51.63 17.9587 51.5477 17.4733 51.383C16.9967 51.2183 16.5937 50.9757 16.2643 50.655C15.935 50.3257 15.688 49.9183 15.5233 49.433C15.3587 48.9477 15.2763 48.3843 15.2763 47.743V43.076C15.2763 42.79 15.3457 42.5777 15.4843 42.439C15.6317 42.3003 15.8397 42.231 16.1083 42.231C16.377 42.231 16.5807 42.3003 16.7193 42.439C16.8667 42.5777 16.9403 42.79 16.9403 43.076V47.73C16.9403 48.5533 17.1267 49.173 17.4993 49.589C17.8807 49.9963 18.431 50.2 19.1503 50.2C19.8697 50.2 20.4157 49.9963 20.7883 49.589C21.161 49.173 21.3473 48.5533 21.3473 47.73V43.076C21.3473 42.79 21.4167 42.5777 21.5553 42.439C21.7027 42.3003 21.9107 42.231 22.1793 42.231C22.4393 42.231 22.6387 42.3003 22.7773 42.439C22.9247 42.5777 22.9983 42.79 22.9983 43.076V47.743C22.9983 48.5923 22.851 49.3073 22.5563 49.888C22.2703 50.4687 21.8413 50.9063 21.2693 51.201C20.6973 51.487 19.991 51.63 19.1503 51.63ZM25.589 51.591C25.329 51.591 25.1297 51.513 24.991 51.357C24.8523 51.201 24.783 50.9843 24.783 50.707V45.936C24.783 45.65 24.8523 45.4333 24.991 45.286C25.1297 45.13 25.329 45.052 25.589 45.052C25.849 45.052 26.0483 45.13 26.187 45.286C26.3343 45.4333 26.408 45.65 26.408 45.936V50.707C26.408 50.9843 26.3387 51.201 26.2 51.357C26.0613 51.513 25.8577 51.591 25.589 51.591ZM25.589 43.843C25.2857 43.843 25.0473 43.7693 24.874 43.622C24.7093 43.466 24.627 43.2537 24.627 42.985C24.627 42.7077 24.7093 42.4953 24.874 42.348C25.0473 42.2007 25.2857 42.127 25.589 42.127C25.901 42.127 26.1393 42.2007 26.304 42.348C26.4687 42.4953 26.551 42.7077 26.551 42.985C26.551 43.2537 26.4687 43.466 26.304 43.622C26.1393 43.7693 25.901 43.843 25.589 43.843ZM32.0615 51.63C31.4288 51.63 30.8698 51.5477 30.3845 51.383C29.9078 51.2183 29.5048 50.9757 29.1755 50.655C28.8461 50.3257 28.5991 49.9183 28.4345 49.433C28.2698 48.9477 28.1875 48.3843 28.1875 47.743V43.076C28.1875 42.79 28.2568 42.5777 28.3955 42.439C28.5428 42.3003 28.7508 42.231 29.0195 42.231C29.2881 42.231 29.4918 42.3003 29.6305 42.439C29.7778 42.5777 29.8515 42.79 29.8515 43.076V47.73C29.8515 48.5533 30.0378 49.173 30.4105 49.589C30.7918 49.9963 31.3421 50.2 32.0615 50.2C32.7808 50.2 33.3268 49.9963 33.6995 49.589C34.0721 49.173 34.2585 48.5533 34.2585 47.73V43.076C34.2585 42.79 34.3278 42.5777 34.4665 42.439C34.6138 42.3003 34.8218 42.231 35.0905 42.231C35.3505 42.231 35.5498 42.3003 35.6885 42.439C35.8358 42.5777 35.9095 42.79 35.9095 43.076V47.743C35.9095 48.5923 35.7621 49.3073 35.4675 49.888C35.1815 50.4687 34.7525 50.9063 34.1805 51.201C33.6085 51.487 32.9021 51.63 32.0615 51.63ZM38.1361 51.565C37.9455 51.565 37.7851 51.513 37.6551 51.409C37.5338 51.2963 37.4688 51.1533 37.4601 50.98C37.4601 50.8067 37.5338 50.6247 37.6811 50.434L39.7871 47.834V48.601L37.8111 46.17C37.6551 45.9793 37.5815 45.7973 37.5901 45.624C37.5988 45.4507 37.6638 45.312 37.7851 45.208C37.9151 45.0953 38.0755 45.039 38.2661 45.039C38.4655 45.039 38.6301 45.0737 38.7601 45.143C38.8988 45.2123 39.0245 45.3207 39.1371 45.468L40.6971 47.47H40.1251L41.6981 45.468C41.8195 45.3207 41.9451 45.2123 42.0751 45.143C42.2051 45.0737 42.3655 45.039 42.5561 45.039C42.7555 45.039 42.9158 45.0953 43.0371 45.208C43.1585 45.3207 43.2191 45.4637 43.2191 45.637C43.2278 45.8103 43.1541 45.9923 42.9981 46.183L41.0351 48.588V47.86L43.1411 50.434C43.2971 50.616 43.3708 50.7937 43.3621 50.967C43.3535 51.1403 43.2841 51.2833 43.1541 51.396C43.0328 51.5087 42.8725 51.565 42.6731 51.565C42.4825 51.565 42.3221 51.5303 42.1921 51.461C42.0621 51.3917 41.9365 51.2833 41.8151 51.136L40.1251 49.004H40.6711L38.9941 51.136C38.8815 51.2747 38.7601 51.383 38.6301 51.461C38.5001 51.5303 38.3355 51.565 38.1361 51.565ZM49.0548 51.63C48.1708 51.63 47.3951 51.435 46.7278 51.045C46.0691 50.655 45.5578 50.109 45.1938 49.407C44.8298 48.6963 44.6478 47.8643 44.6478 46.911C44.6478 46.1917 44.7518 45.546 44.9598 44.974C45.1678 44.3933 45.4625 43.8993 45.8438 43.492C46.2338 43.076 46.6975 42.7597 47.2348 42.543C47.7808 42.3177 48.3875 42.205 49.0548 42.205C49.9475 42.205 50.7231 42.4 51.3818 42.79C52.0405 43.1713 52.5518 43.713 52.9158 44.415C53.2798 45.117 53.4618 45.9447 53.4618 46.898C53.4618 47.6173 53.3578 48.2673 53.1498 48.848C52.9418 49.4287 52.6428 49.927 52.2528 50.343C51.8715 50.759 51.4078 51.0797 50.8618 51.305C50.3245 51.5217 49.7221 51.63 49.0548 51.63ZM49.0548 50.2C49.6181 50.2 50.0948 50.07 50.4848 49.81C50.8835 49.55 51.1868 49.173 51.3948 48.679C51.6115 48.185 51.7198 47.5957 51.7198 46.911C51.7198 45.871 51.4858 45.065 51.0178 44.493C50.5585 43.921 49.9041 43.635 49.0548 43.635C48.5001 43.635 48.0235 43.765 47.6248 44.025C47.2261 44.2763 46.9185 44.649 46.7018 45.143C46.4938 45.6283 46.3898 46.2177 46.3898 46.911C46.3898 47.9423 46.6238 48.7483 47.0918 49.329C47.5598 49.9097 48.2141 50.2 49.0548 50.2ZM57.9098 51.63C57.3465 51.63 56.8742 51.5347 56.4928 51.344C56.1202 51.1533 55.8428 50.876 55.6608 50.512C55.4788 50.1393 55.3878 49.68 55.3878 49.134V46.365H54.7118C54.5038 46.365 54.3435 46.313 54.2308 46.209C54.1182 46.0963 54.0618 45.9447 54.0618 45.754C54.0618 45.5547 54.1182 45.403 54.2308 45.299C54.3435 45.195 54.5038 45.143 54.7118 45.143H55.3878V43.96C55.3878 43.6913 55.4572 43.4877 55.5958 43.349C55.7432 43.2103 55.9468 43.141 56.2068 43.141C56.4668 43.141 56.6662 43.2103 56.8048 43.349C56.9435 43.4877 57.0128 43.6913 57.0128 43.96V45.143H58.3908C58.5988 45.143 58.7592 45.195 58.8718 45.299C58.9845 45.403 59.0408 45.5547 59.0408 45.754C59.0408 45.9447 58.9845 46.0963 58.8718 46.209C58.7592 46.313 58.5988 46.365 58.3908 46.365H57.0128V49.043C57.0128 49.459 57.1038 49.771 57.2858 49.979C57.4678 50.187 57.7625 50.291 58.1698 50.291C58.3172 50.291 58.4472 50.278 58.5598 50.252C58.6725 50.226 58.7722 50.2087 58.8588 50.2C58.9628 50.1913 59.0495 50.226 59.1188 50.304C59.1882 50.3733 59.2228 50.5207 59.2228 50.746C59.2228 50.9193 59.1925 51.0753 59.1318 51.214C59.0798 51.344 58.9802 51.435 58.8328 51.487C58.7202 51.5217 58.5728 51.552 58.3908 51.578C58.2088 51.6127 58.0485 51.63 57.9098 51.63ZM62.8226 51.63C62.1639 51.63 61.5919 51.4957 61.1066 51.227C60.6213 50.9583 60.2443 50.577 59.9756 50.083C59.7069 49.5803 59.5726 48.991 59.5726 48.315C59.5726 47.8037 59.6463 47.3487 59.7936 46.95C59.9496 46.5427 60.1706 46.196 60.4566 45.91C60.7426 45.6153 61.0849 45.3943 61.4836 45.247C61.8823 45.091 62.3286 45.013 62.8226 45.013C63.4813 45.013 64.0533 45.1473 64.5386 45.416C65.0239 45.6847 65.4009 46.066 65.6696 46.56C65.9383 47.054 66.0726 47.639 66.0726 48.315C66.0726 48.8263 65.9946 49.2857 65.8386 49.693C65.6913 50.1003 65.4746 50.4513 65.1886 50.746C64.9026 51.032 64.5603 51.253 64.1616 51.409C63.7629 51.5563 63.3166 51.63 62.8226 51.63ZM62.8226 50.395C63.1433 50.395 63.4249 50.317 63.6676 50.161C63.9103 50.005 64.0966 49.7753 64.2266 49.472C64.3653 49.16 64.4346 48.7743 64.4346 48.315C64.4346 47.6217 64.2873 47.106 63.9926 46.768C63.6979 46.4213 63.3079 46.248 62.8226 46.248C62.5019 46.248 62.2203 46.326 61.9776 46.482C61.7349 46.6293 61.5443 46.859 61.4056 47.171C61.2756 47.4743 61.2106 47.8557 61.2106 48.315C61.2106 48.9997 61.3579 49.5197 61.6526 49.875C61.9473 50.2217 62.3373 50.395 62.8226 50.395ZM68.2458 51.604C67.9772 51.604 67.7692 51.5347 67.6218 51.396C67.4832 51.2487 67.4138 51.0407 67.4138 50.772V45.858C67.4138 45.5893 67.4832 45.3857 67.6218 45.247C67.7605 45.1083 67.9555 45.039 68.2068 45.039C68.4582 45.039 68.6532 45.1083 68.7918 45.247C68.9305 45.3857 68.9998 45.5893 68.9998 45.858V46.677H68.8698C68.9912 46.157 69.2295 45.7627 69.5848 45.494C69.9402 45.2253 70.4125 45.065 71.0018 45.013C71.1838 44.9957 71.3268 45.0433 71.4308 45.156C71.5435 45.26 71.6085 45.4247 71.6258 45.65C71.6432 45.8667 71.5912 46.0443 71.4698 46.183C71.3572 46.313 71.1838 46.391 70.9498 46.417L70.6638 46.443C70.1352 46.495 69.7365 46.6597 69.4678 46.937C69.1992 47.2057 69.0648 47.587 69.0648 48.081V50.772C69.0648 51.0407 68.9955 51.2487 68.8568 51.396C68.7182 51.5347 68.5145 51.604 68.2458 51.604Z" fill="url(#paint0_linear_5_1527)"/>
<defs>
<linearGradient id="paint0_linear_5_1527" x1="14" y1="39.5" x2="41.0702" y2="88.5647" gradientUnits="userSpaceOnUse">
<stop stop-color="#14ADD6"/>
<stop offset="1" stop-color="#384295"/>
</linearGradient>
</defs>
</svg>
